<?xml version="1.0" encoding="UTF-8"?>
<svg xmlns="http://www.w3.org/2000/svg" xmlns:xlink="http://www.w3.org/1999/xlink" width="49" height="49" viewBox="0 0 49 49">
<path fill="none" stroke-width="2" stroke-linecap="butt" stroke-linejoin="miter" stroke="rgb(0%, 0%, 0%)" stroke-opacity="1" stroke-miterlimit="10" d="M 43.996094 18.164062 C 45.207031 21.890625 39.035156 22.886719 37.171875 28.617188 C 35.3125 34.347656 39.71875 38.78125 36.550781 41.085938 C 33.382812 43.386719 30.523438 37.824219 24.5 37.824219 C 18.476562 37.824219 15.617188 43.386719 12.449219 41.085938 C 9.28125 38.78125 13.6875 34.347656 11.828125 28.617188 C 9.964844 22.886719 3.792969 21.890625 5.003906 18.164062 C 6.214844 14.441406 11.792969 17.261719 16.667969 13.71875 C 21.542969 10.179688 20.582031 4 24.5 4 C 28.417969 4 27.457031 10.179688 32.332031 13.71875 C 37.207031 17.261719 42.785156 14.441406 43.996094 18.164062 "/>
<path fill-rule="nonzero" fill="rgb(100%, 75.294119%, 79.607844%)" fill-opacity="1" d="M 43.996094 18.164062 C 45.207031 21.890625 39.035156 22.886719 37.171875 28.617188 C 35.3125 34.347656 39.71875 38.78125 36.550781 41.085938 C 33.382812 43.386719 30.523438 37.824219 24.5 37.824219 C 18.476562 37.824219 15.617188 43.386719 12.449219 41.085938 C 9.28125 38.78125 13.6875 34.347656 11.828125 28.617188 C 9.964844 22.886719 3.792969 21.890625 5.003906 18.164062 C 6.214844 14.441406 11.792969 17.261719 16.667969 13.71875 C 21.542969 10.179688 20.582031 4 24.5 4 C 28.417969 4 27.457031 10.179688 32.332031 13.71875 C 37.207031 17.261719 42.785156 14.441406 43.996094 18.164062 "/>
<path fill-rule="nonzero" fill="rgb(0%, 0%, 0%)" fill-opacity="1" d="M 30.308594 27.449219 C 30.199219 28.933594 30.058594 33.292969 26.136719 35.074219 C 26.417969 35.277344 26.683594 35.574219 26.824219 35.824219 C 28.996094 34.761719 30.089844 32.917969 30.667969 31.183594 C 31.058594 32.886719 31.964844 35.011719 34.105469 36.152344 C 34.246094 35.917969 34.511719 35.621094 34.792969 35.433594 C 31.589844 33.808594 31.246094 30.042969 31.152344 28.886719 C 31.230469 28.339844 31.277344 27.855469 31.308594 27.496094 Z M 30.308594 27.449219 "/>
<path fill-rule="nonzero" fill="rgb(0%, 0%, 0%)" fill-opacity="1" d="M 33.886719 20.828125 C 33.308594 21.25 32.511719 21.71875 31.667969 22.125 L 31.730469 20.15625 L 30.839844 20.125 L 30.761719 22.5625 C 30.277344 22.78125 29.792969 22.96875 29.308594 23.15625 C 29.417969 23.328125 29.574219 23.609375 29.621094 23.8125 L 30.730469 23.40625 L 30.699219 24.578125 C 30.652344 25.59375 30.933594 25.890625 31.949219 25.9375 C 32.167969 25.9375 33.308594 25.984375 33.527344 25.984375 C 34.449219 26.015625 34.714844 25.59375 34.871094 24.140625 C 34.621094 24.078125 34.246094 23.921875 34.074219 23.75 C 33.964844 24.9375 33.886719 25.15625 33.480469 25.140625 C 33.230469 25.125 32.277344 25.09375 32.074219 25.09375 C 31.636719 25.078125 31.574219 25.015625 31.589844 24.625 L 31.636719 23.03125 C 32.683594 22.578125 33.683594 22.0625 34.496094 21.5625 Z M 28.824219 19.953125 C 28.261719 21.03125 27.324219 22.0625 26.355469 22.6875 C 26.574219 22.828125 26.902344 23.15625 27.058594 23.328125 C 27.355469 23.109375 27.636719 22.875 27.917969 22.578125 L 27.792969 25.9375 L 28.683594 25.96875 L 28.839844 21.515625 C 29.152344 21.125 29.433594 20.703125 29.667969 20.25 Z M 31.871094 17.484375 L 31.855469 18.328125 L 29.699219 18.25 L 29.714844 17.40625 L 28.824219 17.375 L 28.808594 18.21875 L 26.652344 18.140625 L 26.621094 18.96875 L 28.777344 19.046875 L 28.746094 19.8125 L 29.636719 19.84375 L 29.667969 19.078125 L 31.824219 19.15625 L 31.792969 19.953125 L 32.699219 19.984375 L 32.730469 19.1875 L 34.824219 19.265625 L 34.855469 18.4375 L 32.761719 18.359375 L 32.777344 17.515625 Z M 31.871094 17.484375 "/>
<path fill-rule="nonzero" fill="rgb(0%, 0%, 0%)" fill-opacity="1" d="M 16.277344 26.929688 C 16.542969 27.398438 16.792969 28.039062 16.886719 28.445312 L 17.449219 28.195312 C 17.339844 27.804688 17.074219 27.195312 16.792969 26.742188 Z M 17.667969 26.523438 C 17.839844 27.039062 18.011719 27.695312 18.058594 28.085938 L 18.667969 27.914062 C 18.605469 27.539062 18.417969 26.882812 18.214844 26.398438 Z M 19.527344 26.398438 C 19.402344 27.039062 19.167969 27.929688 18.964844 28.460938 L 19.527344 28.617188 C 19.746094 28.070312 19.996094 27.257812 20.167969 26.539062 Z M 15.011719 26.601562 L 15.136719 28.007812 L 14.230469 28.085938 L 14.277344 28.664062 L 15.136719 28.585938 C 15.011719 29.492188 14.699219 30.492188 14.324219 31.070312 C 14.449219 31.210938 14.605469 31.445312 14.683594 31.601562 C 14.933594 31.195312 15.152344 30.570312 15.292969 29.914062 L 15.542969 32.742188 L 16.136719 32.695312 L 15.871094 29.726562 C 16.089844 30.054688 16.324219 30.398438 16.449219 30.617188 L 16.761719 30.117188 L 16.667969 30.007812 L 17.402344 29.945312 C 17.246094 30.382812 17.089844 30.835938 16.949219 31.164062 L 17.542969 31.335938 L 17.621094 31.132812 C 17.855469 31.226562 18.074219 31.304688 18.308594 31.414062 C 17.902344 31.726562 17.339844 31.945312 16.621094 32.117188 C 16.746094 32.242188 16.902344 32.460938 16.964844 32.648438 C 17.808594 32.398438 18.449219 32.117188 18.917969 31.695312 C 19.386719 31.914062 19.808594 32.164062 20.089844 32.382812 L 20.527344 31.898438 C 20.230469 31.695312 19.808594 31.460938 19.339844 31.226562 C 19.605469 30.835938 19.792969 30.320312 19.886719 29.726562 L 20.464844 29.679688 L 20.417969 29.101562 L 18.277344 29.289062 L 18.511719 28.570312 L 17.871094 28.492188 C 17.792969 28.757812 17.714844 29.054688 17.605469 29.351562 L 16.464844 29.445312 L 16.496094 29.789062 C 16.246094 29.507812 15.949219 29.101562 15.808594 28.976562 L 15.777344 28.539062 L 16.542969 28.460938 L 16.496094 27.882812 L 15.730469 27.960938 L 15.605469 26.554688 Z M 18.074219 29.898438 L 19.246094 29.789062 C 19.167969 30.273438 19.011719 30.664062 18.761719 30.976562 C 18.433594 30.851562 18.121094 30.726562 17.808594 30.617188 Z M 18.074219 29.898438 "/>
<path fill-rule="nonzero" fill="rgb(0%, 0%, 0%)" fill-opacity="1" d="M 23.71875 25.835938 L 23.859375 27.445312 L 21.3125 27.679688 L 21.359375 28.289062 L 23.625 28.085938 C 23.140625 29.242188 22.28125 30.398438 21.3125 31.023438 C 21.484375 31.148438 21.734375 31.382812 21.84375 31.539062 C 22.6875 30.898438 23.4375 29.882812 23.96875 28.773438 L 24.25 31.992188 L 24.921875 31.945312 L 24.640625 28.710938 C 25.359375 29.679688 26.28125 30.554688 27.21875 31.023438 C 27.296875 30.851562 27.484375 30.585938 27.625 30.460938 C 26.59375 29.976562 25.515625 29.023438 24.828125 27.976562 L 27.125 27.773438 L 27.078125 27.164062 L 24.53125 27.398438 L 24.390625 25.789062 Z M 23.71875 25.835938 "/>
<path fill-rule="nonzero" fill="rgb(0%, 0%, 0%)" fill-opacity="1" d="M 15.691406 17.605469 C 16.066406 17.886719 16.488281 18.277344 16.691406 18.542969 L 17.144531 18.167969 C 16.925781 17.902344 16.488281 17.527344 16.128906 17.261719 Z M 11.785156 17.667969 L 11.816406 18.230469 L 14.347656 18.136719 L 14.316406 17.574219 Z M 14.800781 17.230469 C 14.816406 17.761719 14.847656 18.292969 14.894531 18.792969 L 11.300781 18.917969 L 11.316406 19.496094 L 14.941406 19.371094 C 15.175781 21.621094 15.691406 23.355469 16.691406 23.339844 C 17.222656 23.308594 17.441406 22.980469 17.488281 21.777344 C 17.316406 21.714844 17.082031 21.589844 16.941406 21.464844 C 16.941406 22.324219 16.894531 22.699219 16.738281 22.699219 C 16.222656 22.730469 15.785156 21.308594 15.566406 19.355469 L 17.269531 19.292969 L 17.253906 18.714844 L 15.519531 18.777344 C 15.472656 18.277344 15.441406 17.761719 15.441406 17.214844 Z M 11.832031 20.167969 L 11.910156 22.683594 L 11.347656 22.792969 L 11.519531 23.402344 C 12.472656 23.199219 13.800781 22.902344 15.050781 22.621094 L 14.972656 22.042969 L 13.753906 22.308594 L 13.707031 21.042969 L 14.769531 21.011719 L 14.753906 20.449219 L 13.691406 20.480469 L 13.660156 19.621094 L 13.066406 19.636719 L 13.160156 22.433594 L 12.488281 22.574219 L 12.410156 20.152344 Z M 11.832031 20.167969 "/>
<path fill-rule="nonzero" fill="rgb(0%, 0%, 0%)" fill-opacity="1" d="M 20.875 17 L 20.9375 19.046875 L 18.296875 19.140625 L 18.3125 19.765625 L 20.953125 19.671875 L 21.046875 22.1875 L 18.78125 22.265625 L 18.796875 22.890625 L 24.078125 22.71875 L 24.0625 22.09375 L 21.71875 22.171875 L 21.625 19.65625 L 24.3125 19.5625 L 24.296875 18.9375 L 21.609375 19.03125 L 21.546875 16.984375 Z M 20.875 17 "/>
</svg>
